<svg width="46" height="54" viewBox="0 0 46 54" fill="none" xmlns="http://www.w3.org/2000/svg">
<path d="M23.086 53.6912C18.794 53.6912 14.9707 52.6306 11.616 50.5092C8.26133 48.3879 5.622 45.3292 3.698 41.3332C1.82333 37.2879 0.886 32.4779 0.886 26.9032C0.886 21.3286 1.82333 16.5432 3.698 12.5472C5.622 8.50189 8.26133 5.41855 11.616 3.29722C14.9707 1.17589 18.794 0.115222 23.086 0.115222C27.378 0.115222 31.2013 1.17589 34.556 3.29722C37.9107 5.41855 40.5253 8.50189 42.4 12.5472C44.324 16.5432 45.286 21.3286 45.286 26.9032C45.286 32.4779 44.324 37.2879 42.4 41.3332C40.5253 45.3292 37.9107 48.3879 34.556 50.5092C31.2013 52.6306 27.378 53.6912 23.086 53.6912ZM23.086 43.5532C26.2433 43.5532 28.71 42.1966 30.486 39.4832C32.3113 36.7699 33.224 32.5766 33.224 26.9032C33.224 21.2299 32.3113 17.0366 30.486 14.3232C28.71 11.6099 26.2433 10.2532 23.086 10.2532C19.978 10.2532 17.5113 11.6099 15.686 14.3232C13.91 17.0366 13.022 21.2299 13.022 26.9032C13.022 32.5766 13.91 36.7699 15.686 39.4832C17.5113 42.1966 19.978 43.5532 23.086 43.5532Z" fill="#252B42"/>
</svg>
