<svg width="76" height="54" viewBox="0 0 76 54" fill="none" xmlns="http://www.w3.org/2000/svg">
<path d="M22.366 1.00322V52.8032H10.378V10.6232H0.018V1.00322H22.366ZM53.7645 53.6912C49.4725 53.6912 45.6492 52.6306 42.2945 50.5092C38.9399 48.3879 36.3005 45.3292 34.3765 41.3332C32.5018 37.2879 31.5645 32.4779 31.5645 26.9032C31.5645 21.3286 32.5018 16.5432 34.3765 12.5472C36.3005 8.50189 38.9399 5.41855 42.2945 3.29722C45.6492 1.17589 49.4725 0.115222 53.7645 0.115222C58.0565 0.115222 61.8799 1.17589 65.2345 3.29722C68.5892 5.41855 71.2039 8.50189 73.0785 12.5472C75.0025 16.5432 75.9645 21.3286 75.9645 26.9032C75.9645 32.4779 75.0025 37.2879 73.0785 41.3332C71.2039 45.3292 68.5892 48.3879 65.2345 50.5092C61.8799 52.6306 58.0565 53.6912 53.7645 53.6912ZM53.7645 43.5532C56.9219 43.5532 59.3885 42.1966 61.1645 39.4832C62.9899 36.7699 63.9025 32.5766 63.9025 26.9032C63.9025 21.2299 62.9899 17.0366 61.1645 14.3232C59.3885 11.6099 56.9219 10.2532 53.7645 10.2532C50.6565 10.2532 48.1899 11.6099 46.3645 14.3232C44.5885 17.0366 43.7005 21.2299 43.7005 26.9032C43.7005 32.5766 44.5885 36.7699 46.3645 39.4832C48.1899 42.1966 50.6565 43.5532 53.7645 43.5532Z" fill="white"/>
</svg>
