<svg width="91" height="54" viewBox="0 0 91 54" fill="none" xmlns="http://www.w3.org/2000/svg">
<path d="M20.09 0.115222C27.342 0.115222 33.0153 2.33522 37.11 6.77522C41.2047 11.1659 43.252 17.5052 43.252 25.7932C43.252 31.6639 42.142 36.6959 39.922 40.8892C37.7513 45.0826 34.668 48.2646 30.672 50.4352C26.676 52.6059 22.0633 53.6912 16.834 53.6912C14.0713 53.6912 11.432 53.3952 8.916 52.8032C6.4 52.1619 4.254 51.2739 2.478 50.1392L6.918 41.3332C9.434 43.0599 12.6653 43.9232 16.612 43.9232C21.0027 43.9232 24.4807 42.6406 27.046 40.0752C29.6113 37.4606 30.9927 33.7112 31.19 28.8272C28.082 31.9352 23.79 33.4892 18.314 33.4892C15.0087 33.4892 11.9993 32.8232 9.286 31.4912C6.57267 30.1592 4.42667 28.2846 2.848 25.8672C1.26933 23.4006 0.48 20.5639 0.48 17.3572C0.48 13.9039 1.34333 10.8699 3.07 8.25522C4.79667 5.64055 7.14 3.64255 10.1 2.26122C13.1093 0.830555 16.4393 0.115222 20.09 0.115222ZM20.978 24.5352C23.5927 24.5352 25.714 23.8199 27.342 22.3892C29.0193 20.9092 29.858 19.0346 29.858 16.7652C29.858 14.4959 29.044 12.6459 27.416 11.2152C25.8373 9.78455 23.642 9.06922 20.83 9.06922C18.2647 9.06922 16.168 9.75989 14.54 11.1412C12.9613 12.5226 12.172 14.3972 12.172 16.7652C12.172 19.1332 12.9613 21.0326 14.54 22.4632C16.168 23.8446 18.314 24.5352 20.978 24.5352ZM67.4072 0.115222C74.6592 0.115222 80.3325 2.33522 84.4272 6.77522C88.5219 11.1659 90.5692 17.5052 90.5692 25.7932C90.5692 31.6639 89.4592 36.6959 87.2392 40.8892C85.0685 45.0826 81.9852 48.2646 77.9892 50.4352C73.9932 52.6059 69.3805 53.6912 64.1512 53.6912C61.3885 53.6912 58.7492 53.3952 56.2332 52.8032C53.7172 52.1619 51.5712 51.2739 49.7952 50.1392L54.2352 41.3332C56.7512 43.0599 59.9825 43.9232 63.9292 43.9232C68.3199 43.9232 71.7979 42.6406 74.3632 40.0752C76.9285 37.4606 78.3099 33.7112 78.5072 28.8272C75.3992 31.9352 71.1072 33.4892 65.6312 33.4892C62.3259 33.4892 59.3165 32.8232 56.6032 31.4912C53.8899 30.1592 51.7439 28.2846 50.1652 25.8672C48.5865 23.4006 47.7972 20.5639 47.7972 17.3572C47.7972 13.9039 48.6605 10.8699 50.3872 8.25522C52.1139 5.64055 54.4572 3.64255 57.4172 2.26122C60.4265 0.830555 63.7565 0.115222 67.4072 0.115222ZM68.2952 24.5352C70.9099 24.5352 73.0312 23.8199 74.6592 22.3892C76.3365 20.9092 77.1752 19.0346 77.1752 16.7652C77.1752 14.4959 76.3612 12.6459 74.7332 11.2152C73.1545 9.78455 70.9592 9.06922 68.1472 9.06922C65.5819 9.06922 63.4852 9.75989 61.8572 11.1412C60.2785 12.5226 59.4892 14.3972 59.4892 16.7652C59.4892 19.1332 60.2785 21.0326 61.8572 22.4632C63.4852 23.8446 65.6312 24.5352 68.2952 24.5352Z" fill="#252B42"/>
</svg>
