<svg width="13" height="20" viewBox="0 0 13 20" fill="none" xmlns="http://www.w3.org/2000/svg">
<path d="M12.2 13.2032C12.2 14.2966 11.8 15.2366 11 16.0232C10.2 16.7966 9.04667 17.2766 7.54 17.4632V19.7032H5.54V17.5232C4.55333 17.4699 3.61333 17.2966 2.72 17.0032C1.82667 16.7099 1.10667 16.3499 0.56 15.9232L1.66 13.4832C2.16667 13.8566 2.76 14.1699 3.44 14.4232C4.12 14.6766 4.82 14.8366 5.54 14.9032V11.5632C4.59333 11.3366 3.79333 11.0832 3.14 10.8032C2.48667 10.5232 1.94 10.1166 1.5 9.58322C1.06 9.03656 0.84 8.31656 0.84 7.42322C0.84 6.31656 1.24 5.36989 2.04 4.58322C2.85333 3.78322 4.02 3.29656 5.54 3.12322V0.903222H7.54V3.08322C9.18 3.21656 10.5333 3.62322 11.6 4.30322L10.6 6.76322C9.6 6.18989 8.58 5.84322 7.54 5.72322V9.12322C8.47333 9.33656 9.26 9.58322 9.9 9.86322C10.5533 10.1299 11.1 10.5366 11.54 11.0832C11.98 11.6166 12.2 12.3232 12.2 13.2032ZM4.06 7.26322C4.06 7.59656 4.18667 7.86989 4.44 8.08322C4.69333 8.29656 5.06 8.47656 5.54 8.62322V5.78322C5.03333 5.90322 4.66 6.09656 4.42 6.36322C4.18 6.61656 4.06 6.91656 4.06 7.26322ZM7.54 14.8232C8.02 14.7166 8.38 14.5432 8.62 14.3032C8.86 14.0632 8.98 13.7766 8.98 13.4432C8.98 13.1099 8.85333 12.8366 8.6 12.6232C8.36 12.4099 8.00667 12.2232 7.54 12.0632V14.8232Z" fill="#252B42"/>
</svg>
