<svg width="12" height="20" viewBox="0 0 12 20" fill="none" xmlns="http://www.w3.org/2000/svg">
<path d="M11.7 13.2032C11.7 14.2966 11.3 15.2366 10.5 16.0232C9.7 16.7966 8.54667 17.2766 7.04 17.4632V19.7032H5.04V17.5232C4.05333 17.4699 3.11333 17.2966 2.22 17.0032C1.32667 16.7099 0.606667 16.3499 0.06 15.9232L1.16 13.4832C1.66667 13.8566 2.26 14.1699 2.94 14.4232C3.62 14.6766 4.32 14.8366 5.04 14.9032V11.5632C4.09333 11.3366 3.29333 11.0832 2.64 10.8032C1.98667 10.5232 1.44 10.1166 1 9.58322C0.56 9.03656 0.34 8.31656 0.34 7.42322C0.34 6.31656 0.74 5.36989 1.54 4.58322C2.35333 3.78322 3.52 3.29656 5.04 3.12322V0.903222H7.04V3.08322C8.68 3.21656 10.0333 3.62322 11.1 4.30322L10.1 6.76322C9.1 6.18989 8.08 5.84322 7.04 5.72322V9.12322C7.97333 9.33656 8.76 9.58322 9.4 9.86322C10.0533 10.1299 10.6 10.5366 11.04 11.0832C11.48 11.6166 11.7 12.3232 11.7 13.2032ZM3.56 7.26322C3.56 7.59656 3.68667 7.86989 3.94 8.08322C4.19333 8.29656 4.56 8.47656 5.04 8.62322V5.78322C4.53333 5.90322 4.16 6.09656 3.92 6.36322C3.68 6.61656 3.56 6.91656 3.56 7.26322ZM7.04 14.8232C7.52 14.7166 7.88 14.5432 8.12 14.3032C8.36 14.0632 8.48 13.7766 8.48 13.4432C8.48 13.1099 8.35333 12.8366 8.1 12.6232C7.86 12.4099 7.50667 12.2232 7.04 12.0632V14.8232Z" fill="white"/>
</svg>
